<?xml version="1.0" encoding="utf-8"?><!-- Uploaded to: SVG Repo, www.svgrepo.com, Generator: SVG Repo Mixer Tools -->
<svg fill="#000000" width="800px" height="800px" viewBox="0 0 24 24" id="acrobatic-2" data-name="Line Color" xmlns="http://www.w3.org/2000/svg" class="icon line-color"><path id="primary" d="M10.8,3l6.55,2.45a1,1,0,0,1,.36,1.65L15.8,9,13,8.05A1.13,1.13,0,0,0,12.64,8H8.58a1,1,0,0,0-.67.26L6,10" style="fill: none; stroke: rgb(0, 0, 0); stroke-linecap: round; stroke-linejoin: round; stroke-width: 2;"></path><path id="secondary-upstroke" d="M15.9,9.34l.18.66a4.21,4.21,0,0,1-2.86,5.17h0" style="fill: none; stroke: rgb(44, 169, 188); stroke-linecap: round; stroke-linejoin: round; stroke-width: 2;"></path><path id="primary-2" data-name="primary" d="M11,21h1a1,1,0,0,0,1-1V14" style="fill: none; stroke: rgb(0, 0, 0); stroke-linecap: round; stroke-linejoin: round; stroke-width: 2;"></path><circle id="primary-3" data-name="primary" cx="11" cy="14" r="2" style="fill: none; stroke: rgb(0, 0, 0); stroke-linecap: round; stroke-linejoin: round; stroke-width: 2;"></circle></svg>